# xmcd
#
# Track frame offsets:
#	150
#	11805
#	19400
#	33330
#	43842
#	54645
#	70765
#	85582
#	99967
#	113870
#
# Disc length: 1643
#
# Revision: 2
# Processed by: cddbd v1.5.1PL0 Copyright (c) Steve Scherf et al.
# Submitted via: EasyCDDAExtractor 5.1.0
# Normalized: r1:DSETVAR1
#
DISCID=7b06690a
DTITLE=Various Artist - Double Barrel Country
DYEAR=1900
DGENRE=Country
TTITLE0=Jim Reeves - I'll Fly Away
TTITLE1=Jim Reeves - Teach Me How to Pray
TTITLE2=Jim Reeves - Whispering Hopes
TTITLE3=Jim Reeves - In The Garden
TTITLE4=Jim Reeves - Take My Hand, Precious Lord
TTITLE5=Eddy Arnold - I Love To Tell The Story
TTITLE6=Eddy Arnold - Crying In The Chapel
TTITLE7=Eddy Arnold - It Is No Secret (What God Can Do)
TTITLE8=Eddy Arnold - God Walks These Hills With Me
TTITLE9=Eddy Arnold - The Voice In The Old Village Choir
EXTD=
EXTT0=
EXTT1=
EXTT2=
EXTT3=
EXTT4=
EXTT5=
EXTT6=
EXTT7=
EXTT8=
EXTT9=
PLAYORDER=
